<svg width="19" height="19" viewBox="0 0 19 19" fill="none" xmlns="http://www.w3.org/2000/svg">
<path fill-rule="evenodd" clip-rule="evenodd" d="M4.04459 11.0285L3.40933 13.4001L1.08748 13.4492C0.393587 12.1622 0 10.6896 0 9.12485C0 7.6117 0.367994 6.18478 1.02029 4.92834H1.02079L3.08789 5.30732L3.9934 7.36201C3.80388 7.91454 3.70058 8.50766 3.70058 9.12485C3.70065 9.79468 3.82199 10.4365 4.04459 11.0285Z" fill="white"/>
<path fill-rule="evenodd" clip-rule="evenodd" d="M18.0906 7.42029C18.1954 7.97228 18.2501 8.54234 18.2501 9.12495C18.2501 9.77825 18.1814 10.4155 18.0505 11.0302C17.6063 13.1219 16.4456 14.9484 14.8378 16.241L14.8373 16.2405L12.2336 16.1076L11.8651 13.8073C12.9321 13.1816 13.7659 12.2024 14.2051 11.0302H9.32568V7.42029H14.2762H18.0906Z" fill="white"/>
<path fill-rule="evenodd" clip-rule="evenodd" d="M14.8371 16.2406L14.8376 16.2411C13.2738 17.498 11.2873 18.2501 9.12493 18.2501C5.6499 18.2501 2.62864 16.3078 1.0874 13.4494L4.04451 11.0288C4.81511 13.0854 6.79905 14.5495 9.12493 14.5495C10.1246 14.5495 11.0612 14.2792 11.8649 13.8074L14.8371 16.2406Z" fill="white"/>
<path fill-rule="evenodd" clip-rule="evenodd" d="M14.9494 2.10075L11.9933 4.52087C11.1616 4.00096 10.1783 3.70062 9.12498 3.70062C6.74645 3.70062 4.72541 5.2318 3.99341 7.36217L1.02076 4.9285H1.02026C2.53893 2.00048 5.59831 0 9.12498 0C11.339 0 13.3691 0.788671 14.9494 2.10075Z" fill="white"/>
</svg>
