<svg width="55" height="39" viewBox="0 0 55 39" fill="none" xmlns="http://www.w3.org/2000/svg">
<path fill-rule="evenodd" clip-rule="evenodd" d="M53.6384 23.418C53.8433 23.7088 54.048 23.9998 54.2528 24.2906C54.2528 26.1205 54.2528 27.9504 54.2528 29.7804C53.0349 29.7804 51.8171 29.7804 50.603 29.7804C50.603 30.4734 50.603 31.045 50.603 31.6805C51.8413 31.6805 53.0469 31.6805 54.2528 31.6805C54.2528 32.5956 54.2528 33.5104 54.2528 34.4255C52.4273 34.4224 50.6019 34.4191 48.7765 34.4159C48.7445 34.1897 48.7183 33.9625 48.6793 33.7375C48.3527 31.8445 47.2719 30.5705 45.438 30.0398C43.6718 29.5287 42.1081 29.9881 40.8197 31.3171C40.0093 32.153 39.6957 33.1986 39.5715 34.3213C39.5404 34.3465 39.5088 34.3717 39.4777 34.3969C38.9136 34.3985 38.3491 34.4001 37.7847 34.4017C37.7845 26.7773 37.7842 19.1527 37.7839 11.5283C40.4212 11.5226 43.0583 11.5129 45.6955 11.522C45.8539 11.5226 46.0756 11.6328 46.1603 11.7623C46.9002 12.8935 47.6159 14.0406 48.3389 15.183C45.4324 15.1832 42.5254 15.1832 39.6037 15.1832C39.6037 17.5814 39.6037 19.8811 39.6037 22.1808C39.6037 22.5926 39.6037 23.0044 39.6037 23.4417C39.8601 23.4417 40.0523 23.4417 40.2443 23.4417C43.6725 23.4417 47.1005 23.4437 50.5285 23.4407C51.5652 23.4399 52.6019 23.4258 53.6384 23.418Z" fill="#FCB52F"/>
<path fill-rule="evenodd" clip-rule="evenodd" d="M54.2529 31.6806C53.0469 31.6806 51.8414 31.6806 50.603 31.6806C50.603 31.0452 50.603 30.4735 50.603 29.7805C51.8171 29.7805 53.0349 29.7805 54.2529 29.7805C54.2529 30.4138 54.2529 31.0473 54.2529 31.6806Z" fill="#DCD9D3"/>
<path fill-rule="evenodd" clip-rule="evenodd" d="M0.199951 0.536985C0.671949 0.536325 1.14949 0.489086 1.61462 0.54543C2.39341 0.639645 1.89397 1.25732 1.97407 1.62257C2.02645 1.86167 2.22016 2.34396 1.61594 2.3338C1.14408 2.32588 0.671949 2.33195 0.200083 2.33168C0.199951 1.73341 0.199951 1.13513 0.199951 0.536985Z" fill="#DADADA"/>
<path fill-rule="evenodd" clip-rule="evenodd" d="M1.15017 29.7894C1.14357 29.6139 1.13117 29.4385 1.13117 29.2631C1.13025 21.419 1.13038 13.5749 1.13038 5.73093C1.13038 5.54 1.13038 5.34906 1.13038 5.1217C12.7323 5.1217 24.2928 5.1217 35.9025 5.1217C35.9025 6.03548 35.9025 6.92722 35.9025 7.8187C25.6285 7.82028 15.3546 7.82174 5.08054 7.82332C3.89019 7.82345 3.89019 7.82332 3.89072 9.00338C3.89111 9.71527 3.89111 9.71553 4.59983 9.71553C15.0322 9.71632 25.4645 9.71712 35.8968 9.71778C35.9022 10.3019 35.9079 10.8861 35.9136 11.4703C35.9044 11.6457 35.8871 11.821 35.8871 11.9962C35.8863 17.9219 35.8868 23.8475 35.8873 29.7734L35.8727 29.7932C30.4096 29.7932 24.9463 29.7932 19.4528 29.7932C19.4528 30.4423 19.4528 31.0281 19.4528 31.6705C24.9516 31.6705 30.4154 31.6705 35.879 31.6705C35.8803 32.5787 35.8814 33.487 35.8826 34.3949C35.6725 34.4023 35.4625 34.4159 35.2522 34.416C29.6185 34.4172 23.9843 34.4172 18.3503 34.416C18.1401 34.416 17.9299 34.4034 17.7198 34.3966C17.6894 34.3716 17.6589 34.3462 17.6283 34.3212C17.5963 34.1312 17.5622 33.9414 17.5326 33.751C17.2688 32.051 16.3331 30.8409 14.7611 30.1962C13.1702 29.5438 11.6332 29.7552 10.2448 30.7939C9.07148 31.6715 8.55528 32.9019 8.42517 34.3243C8.39258 34.3509 8.35999 34.3775 8.32753 34.4043C5.95896 34.4043 3.5904 34.4043 1.14569 34.4043C1.14569 33.4842 1.14569 32.5811 1.14569 31.678C2.54994 31.6781 3.95406 31.6785 5.35831 31.6787C6.64921 31.6788 6.63166 31.6785 6.64657 30.3834C6.65198 29.9258 6.5133 29.7704 6.04724 29.7774C4.4151 29.8018 2.78257 29.7883 1.15017 29.7894Z" fill="#FCB52F"/>
<path fill-rule="evenodd" clip-rule="evenodd" d="M8.42493 34.3243C8.55504 32.9019 9.07124 31.6715 10.2446 30.7939C11.633 29.7552 13.17 29.5437 14.7608 30.1962C16.333 30.841 17.2687 32.0512 17.5324 33.751C17.5619 33.9414 17.596 34.1312 17.628 34.3212C17.6122 34.3536 17.6125 34.3858 17.629 34.4182C17.5102 35.883 16.9957 37.1503 15.7749 38.0475C14.3708 39.0793 12.8243 39.2816 11.2386 38.605C9.69815 37.9479 8.76551 36.7433 8.51704 35.0547C8.48629 34.8461 8.45449 34.6376 8.42322 34.4291C8.42361 34.3941 8.42427 34.3593 8.42493 34.3243ZM13.8895 35.3166C13.8895 34.6778 13.8895 34.0914 13.8895 33.5098C13.2871 33.5098 12.7303 33.5098 12.1526 33.5098C12.1526 34.1227 12.1526 34.7076 12.1526 35.3166C12.7447 35.3166 13.301 35.3166 13.8895 35.3166Z" fill="#146198"/>
<path fill-rule="evenodd" clip-rule="evenodd" d="M39.5714 34.3213C39.6956 33.1987 40.0092 32.1531 40.8196 31.3171C42.1079 29.9882 43.6717 29.5288 45.4379 30.0398C47.2718 30.5706 48.3528 31.8447 48.6792 33.7376C48.7182 33.9626 48.7444 34.1898 48.7764 34.4159C48.6704 35.9033 48.1279 37.1754 46.8939 38.0721C45.5084 39.0789 43.975 39.2763 42.4121 38.6159C40.856 37.9585 39.9109 36.7486 39.6658 35.0417C39.6358 34.8336 39.6022 34.6261 39.5698 34.4183C39.5868 34.3863 39.5871 34.3539 39.5714 34.3213ZM45.0574 33.5222C44.4245 33.5222 43.8577 33.5222 43.2882 33.5222C43.2882 34.134 43.2882 34.7056 43.2882 35.2975C43.8915 35.2975 44.4706 35.2975 45.0574 35.2975C45.0574 34.6838 45.0574 34.1135 45.0574 33.5222Z" fill="#146098"/>
<path fill-rule="evenodd" clip-rule="evenodd" d="M35.8966 9.71792C25.4643 9.71726 15.032 9.71647 4.59964 9.71568C3.89092 9.71568 3.89092 9.71542 3.89052 9.00353C3.89 7.82347 3.89 7.82373 5.08035 7.82347C15.3542 7.82188 25.6282 7.82043 35.9023 7.81885C35.9188 7.88892 35.9356 7.95911 35.9521 8.02905C35.9521 8.5244 35.9521 9.01976 35.9521 9.51511C35.9336 9.58267 35.915 9.65023 35.8966 9.71792Z" fill="#D18F13"/>
<path fill-rule="evenodd" clip-rule="evenodd" d="M53.6382 23.418C52.6017 23.4259 51.5648 23.4399 50.5283 23.4408C47.1003 23.4437 43.6724 23.4419 40.2442 23.4419C40.0522 23.4419 39.8599 23.4419 39.6035 23.4419C39.6035 23.0047 39.6035 22.5928 39.6035 22.1809C40.1359 21.9629 40.6837 21.7761 41.198 21.5214C43.8562 20.2052 46.1793 18.4391 48.1908 16.26C48.3611 16.0754 48.5578 15.9152 48.7424 15.7438C50.3488 18.2372 51.9554 20.7304 53.5602 23.2248C53.5971 23.2819 53.6128 23.3531 53.6382 23.418Z" fill="#6CBAC6"/>
<path fill-rule="evenodd" clip-rule="evenodd" d="M35.8825 34.3951C35.8811 33.487 35.8801 32.5787 35.8792 31.6708C35.8768 31.0449 35.8748 30.4192 35.8724 29.7933C35.8724 29.7933 35.8871 29.7735 35.8871 29.7737C35.9203 29.5731 35.9825 29.3728 35.9827 29.1722C35.9879 23.2845 35.9871 17.3966 35.9871 11.5088C36.586 11.5153 37.185 11.5217 37.7839 11.5282C37.7842 19.1527 37.7844 26.7771 37.7847 34.4015C37.1507 34.3994 36.5165 34.3973 35.8825 34.3951Z" fill="#FEA83D"/>
<path fill-rule="evenodd" clip-rule="evenodd" d="M48.7423 15.7437C48.5579 15.9151 48.3611 16.0753 48.1908 16.2599C46.1793 18.439 43.8561 20.2051 41.198 21.5213C40.6837 21.776 40.1359 21.9628 39.6035 22.1808C39.6035 19.881 39.6035 17.5814 39.6035 15.1832C42.5254 15.1832 45.4322 15.1832 48.3387 15.183C48.4733 15.3698 48.6078 15.5569 48.7423 15.7437Z" fill="#87CDD8"/>
<path fill-rule="evenodd" clip-rule="evenodd" d="M10.3195 0.534593C12.2713 0.534593 14.2234 0.544753 16.175 0.526148C16.5733 0.522322 16.6816 0.645566 16.6803 1.03615C16.6758 2.33259 16.6908 2.33259 15.3879 2.33259C11.7479 2.33259 8.10765 2.32375 4.46771 2.34354C3.99756 2.34618 3.87089 2.21529 3.88105 1.75213C3.90797 0.534989 3.8862 0.534593 5.0966 0.534593C6.8376 0.534593 8.5786 0.534593 10.3195 0.534593Z" fill="#DADADA"/>
<path fill-rule="evenodd" clip-rule="evenodd" d="M1.15 29.7894C2.7824 29.7883 4.41493 29.8018 6.04693 29.7774C6.51299 29.7703 6.65167 29.9258 6.64627 30.3835C6.63135 31.6786 6.6489 31.6788 5.358 31.6787C3.95375 31.6786 2.54963 31.6782 1.14539 31.6781C1.14697 31.0485 1.14842 30.4188 1.15 29.7894Z" fill="#F36E27"/>
<path fill-rule="evenodd" clip-rule="evenodd" d="M36.0182 11.5088C36.0182 17.3966 36.0193 23.2845 36.0125 29.1722C36.0122 29.3728 35.9308 29.5731 35.8872 29.7737C35.8865 23.8478 35.8858 17.9221 35.8869 11.9964C35.8869 11.8211 35.9095 11.6458 35.9216 11.4704C35.9602 11.4741 35.9923 11.487 36.0182 11.5088Z" fill="#FDBC5F"/>
<path fill-rule="evenodd" clip-rule="evenodd" d="M8.45922 34.3243C8.45833 34.3684 8.45744 34.4123 8.45655 34.4563C8.41043 34.4566 8.36752 34.4461 8.32727 34.425C8.37126 34.3913 8.41524 34.3577 8.45922 34.3243Z" fill="#FDBC5F"/>
<path fill-rule="evenodd" clip-rule="evenodd" d="M17.6323 34.4531C17.6112 34.4091 17.6109 34.3654 17.6311 34.3213C17.6701 34.3554 17.709 34.3898 17.7482 34.4238C17.7121 34.4448 17.6735 34.4547 17.6323 34.4531Z" fill="#FEA83D"/>
<path fill-rule="evenodd" clip-rule="evenodd" d="M39.5952 34.3213C39.6149 34.3655 39.6145 34.4094 39.5935 34.4531C39.5525 34.4545 39.5142 34.4449 39.4777 34.4239C39.5167 34.3895 39.5562 34.3555 39.5952 34.3213Z" fill="#FEA83D"/>
<path fill-rule="evenodd" clip-rule="evenodd" d="M35.8724 29.7933C35.8748 30.4191 35.8768 31.0448 35.8791 31.6708C30.4152 31.6706 24.9514 31.6706 19.4526 31.6706C19.4526 31.0284 19.4526 30.4424 19.4526 29.7933C24.946 29.7933 30.4091 29.7933 35.8724 29.7933Z" fill="#F36C27"/>
<path fill-rule="evenodd" clip-rule="evenodd" d="M13.8896 35.3167C13.3012 35.3167 12.7449 35.3167 12.1527 35.3167C12.1527 34.7077 12.1527 34.1226 12.1527 33.5098C12.7304 33.5098 13.2872 33.5098 13.8896 33.5098C13.8896 34.0913 13.8896 34.6779 13.8896 35.3167Z" fill="#D3D6D8"/>
<path fill-rule="evenodd" clip-rule="evenodd" d="M45.0576 33.5222C45.0576 34.1135 45.0576 34.6838 45.0576 35.2975C44.4708 35.2975 43.8916 35.2975 43.2883 35.2975C43.2883 34.7056 43.2883 34.134 43.2883 33.5222C43.8578 33.5222 44.4246 33.5222 45.0576 33.5222Z" fill="#D3D6D8"/>
</svg>
