<svg width="19" height="16" viewBox="0 0 19 16" fill="none" xmlns="http://www.w3.org/2000/svg">
<path fill-rule="evenodd" clip-rule="evenodd" d="M18.7396 2.20394C18.2848 2.9069 17.7094 3.49768 17.0435 4.00009C16.9115 4.09971 16.8692 4.19843 16.8736 4.36625C16.9197 6.1529 16.5308 7.84881 15.7596 9.4557C14.8374 11.3771 13.4949 12.9328 11.6759 14.06C10.3853 14.8598 8.97955 15.3356 7.47602 15.5368C6.41645 15.6787 5.35737 15.6816 4.30129 15.5298C2.77057 15.3098 1.34595 14.7903 0.0374814 13.9609C0.0283486 13.9551 0.0225944 13.944 0 13.9176C2.0817 14.1078 3.95213 13.5977 5.64502 12.3255C3.88144 12.1695 2.70569 11.2805 2.04348 9.63202C2.63415 9.69674 3.18429 9.71522 3.75284 9.55395C1.5218 9.00028 0.627946 7.02426 0.723392 5.74836C0.990989 5.8503 1.25304 5.97236 1.52782 6.04838C1.80228 6.12434 2.08946 6.15417 2.38361 6.18099C1.58478 5.56787 1.04652 4.79607 0.828868 3.81701C0.612215 2.84239 0.767261 1.92246 1.25626 1.0342C3.34847 3.49658 5.985 4.85293 9.21146 5.07296C9.18987 4.82242 9.15978 4.58845 9.15107 4.35358C9.08096 2.44556 10.3382 0.794479 12.1998 0.408103C13.5122 0.13565 14.6798 0.476784 15.6653 1.39408C15.7814 1.50214 15.8771 1.5364 16.034 1.49823C16.7468 1.32481 17.4294 1.07723 18.071 0.720096C18.1235 0.690903 18.1781 0.665299 18.2695 0.618843C17.9727 1.52104 17.4296 2.1815 16.6889 2.72673C16.9149 2.68497 17.1425 2.65071 17.3663 2.59945C17.5929 2.54755 17.8178 2.48547 18.0396 2.41558C18.2671 2.34383 18.4901 2.2572 18.7151 2.17712C18.7225 2.18663 18.7307 2.1956 18.7396 2.20394Z" fill="white"/>
<path fill-rule="evenodd" clip-rule="evenodd" d="M6.88634 0.0100306C6.90395 0.00666211 6.92157 0.00329475 6.93913 0C6.93166 0.0175731 6.92413 0.0351451 6.91661 0.0527908C6.90572 0.0394643 6.89557 0.0252597 6.88634 0.0100306Z" fill="#04A9F3"/>
</svg>
